<svg width="285" height="136" viewBox="0 0 285 136" fill="none" xmlns="http://www.w3.org/2000/svg">
<path d="M12.2586 57.1402C10.7708 57.3048 9.67023 57.3914 8.47393 57.4855C8.28252 57.5006 8.0389 57.5672 7.90406 57.4829C7.62131 57.4577 10.8292 47.2864 11.2905 45.8738C12.605 41.8787 13.7193 37.9943 14.9424 33.959C15.9 30.7514 18.3157 23.0153 18.4725 22.3386C18.6336 21.614 18.6031 21.4266 19.2731 21.3738C20.9392 21.3376 22.6706 21.1064 24.2975 20.9784C25.0632 20.9181 24.7717 20.9885 25.0282 21.8226C25.1367 23.2378 28.2338 48.6692 28.3729 49.2278C28.6815 50.5323 28.6508 51.911 28.9594 53.2156C29.0681 53.5867 29.6289 55.7731 28.5283 55.8598C27.7104 55.9716 24.935 56.19 24.1694 56.2503C23.5952 56.2955 23.543 56.347 23.4039 55.7885C23.1908 54.9984 23.0431 54.0134 22.8301 53.2234L22.5954 52.1503C22.4911 51.7314 22.2257 51.515 21.6994 51.5564C19.3111 51.6969 18.1323 51.5999 15.7135 52.075C15.2263 52.2082 15.0784 52.2673 14.9782 52.8447C14.8171 53.5693 14.2162 57.0336 13.2591 57.1089C12.8285 57.1428 12.3978 57.1767 12.2586 57.1402ZM19.5166 45.7959C19.9473 45.762 20.3736 45.7759 20.8043 45.742C21.6656 45.6742 21.857 45.6591 21.5833 43.9722C21.3313 42.0462 21.1837 40.5391 20.9186 38.7566C20.7795 38.198 20.7189 36.779 20.5798 36.2205C20.5363 36.1764 20.4493 36.0884 20.3536 36.0959C20.3058 36.0997 20.2013 36.2028 20.1448 36.3022C19.7313 37.711 17.9206 43.5011 17.5854 44.5716C17.124 45.9842 17.1719 45.9804 18.5117 45.875L19.5166 45.7959ZM41.1111 43.0048C40.9018 45.2993 40.2477 54.0357 40.1694 54.3741C39.8735 55.0143 39.3819 55.1954 38.8033 55.2884C37.2198 55.4605 35.7364 55.5772 34.1486 55.7971C33.7657 55.8272 33.644 55.5995 33.6179 55.3643C33.6311 54.6988 33.6443 54.0334 33.7531 53.3604C34.0232 51.4408 34.6251 42.7559 34.7516 40.8476C34.8781 38.9393 36.229 25.687 36.6561 21.0024C36.7389 20.0942 37.1436 19.825 38.0484 19.8013C39.4361 19.6921 40.0582 19.6431 41.4415 19.5817C42.3942 19.5542 43.1207 19.4021 42.9551 21.2185C42.8025 22.8916 42.7326 24.7005 42.58 26.3736C42.0396 31.7789 41.4644 37.5667 41.1111 43.0048ZM68.4324 18.5965C68.3455 17.9863 68.4369 17.5046 67.767 17.5573C66.4228 17.7105 64.8567 17.6914 63.5082 17.8925C63.2645 17.9591 62.6381 18.0558 62.4771 18.2584C62.2073 18.6118 62.3117 19.0307 62.2681 19.5087C62.2376 19.8433 61.0905 36.5916 61.0251 37.3086C60.999 37.5954 60.9596 38.5477 60.7508 38.754L60.7029 38.7577C60.4289 38.6369 60.0246 37.3399 59.9115 37.0166C59.2027 35.4113 54.9594 22.0297 53.942 19.1199C53.7898 18.7048 53.6028 18.672 53.2678 18.6984C52.2151 18.7812 51.1623 18.8641 50.1052 18.9947C48.574 19.1153 48.1171 19.436 47.9777 20.9656C47.8164 22.7343 45.7415 46.532 45.2796 50.5549L44.9353 54.3312C44.9396 54.8055 45.1657 54.93 45.6443 54.8924C46.2751 54.7478 47.0363 54.7354 47.6584 54.6864L50.051 54.4981C51.008 54.4228 51.0733 54.2278 51.1779 53.0806C51.3872 50.7861 52.4164 36.3726 52.6168 34.6957C52.6342 34.5045 52.569 34.1774 52.817 34.063C53.0171 33.9523 53.2128 34.4115 53.2911 34.5952C54.0998 36.6672 59.6259 53.175 59.9782 53.4795C60.3653 53.9236 62.3968 53.5265 63.8324 53.4135C64.7894 53.3382 65.3114 53.3445 65.4422 51.9105C65.5163 51.0978 68.5149 19.2544 68.4324 18.5965ZM82.7919 16.1375C84.0883 15.988 85.2628 16.1329 86.4764 16.3696C87.4986 16.6213 88.5296 16.7775 88.1726 18.087C87.8288 19.253 87.1674 20.2543 86.7234 21.4757C86.5319 22.0128 86.3883 22.5461 85.7227 22.5511C85.3399 22.5812 85.0702 22.4126 84.7962 22.2918C84.3438 22.0426 83.935 21.8375 83.4217 21.7355C81.6991 21.349 79.3064 22.0594 78.6883 24.1488C78.0833 26.0947 78.4179 28.1566 79.7314 29.382C81.88 31.3486 84.2592 32.8698 86.0424 35.1974C87.6994 37.345 88.7082 39.8283 88.2378 42.9027C88.2029 43.2851 88.1246 43.6235 88.0418 44.0097C87.7545 45.0764 87.328 46.1066 86.7623 47.1003C83.8991 51.9291 78.1741 53.2339 73.5849 52.5036C72.5539 52.3474 69.7699 52.1394 69.9528 50.6538C70.1184 49.3594 70.6493 48.226 71.0932 47.0046C71.2151 46.7103 71.3413 46.3681 71.5589 46.0663C71.9461 45.4663 72.5073 45.5645 72.9553 45.8614C73.7165 46.371 74.5124 47.0203 75.4389 47.2796C77.2485 47.7541 80.0979 47.2451 81.4686 45.2389C82.6304 43.4389 82.3917 40.3255 81.1304 39.0484C80.2605 38.1677 79.2253 37.5373 78.3511 36.7044C77.3811 35.879 76.5156 34.9505 75.6501 34.022C74.702 32.9576 73.5668 31.8605 72.9754 30.5307C72.4232 29.2928 72.4148 27.8222 72.6412 26.3806C72.9548 24.5051 73.5554 22.6069 74.752 20.9466C76.1052 19.1316 77.9978 17.6538 80.0207 16.8302C80.9561 16.4718 81.8783 16.2569 82.7919 16.1375ZM95.0585 20.0603L95.368 16.6664C95.4856 15.8978 95.7728 15.3532 96.5384 15.2929L101.036 14.9389C101.371 14.9125 101.48 15.2837 101.55 15.5629C101.671 16.3127 101.549 17.1291 101.528 17.8902C101.462 19.1292 101.344 20.4199 101.227 21.7105C101.004 24.6705 100.682 27.6857 100.425 31.0281C100.063 34.9956 99.4009 39.1292 99.1826 43.0854L99.1173 43.8024C99.1084 44.4201 99.2389 44.5522 99.8088 44.5548C100.144 44.5285 100.479 44.5021 100.818 44.4279C102.789 44.1779 104.742 44.1191 106.708 43.9169C107.282 43.8717 107.643 44.0806 107.63 44.7461C107.513 46.0367 107.404 47.2317 107.329 48.5664C107.299 49.4231 107.164 49.8608 106.107 49.9915C105.054 50.0743 103.949 50.2088 102.853 50.2476C99.5076 50.4634 96.1796 51.0101 92.8431 51.1303C92.6038 51.1491 92.482 50.9214 92.5038 50.6824C92.5911 49.2043 92.7262 47.7225 92.8613 46.2406C93.053 44.6594 94.7404 23.0278 95.0585 20.0603ZM112.925 39.8682C113.073 37.1989 114.359 25.1856 114.664 21.8395C114.843 19.8796 114.974 17.9235 115.244 16.0039C115.514 13.5622 115.644 13.6943 117.654 13.5362C119.042 13.427 124.784 12.975 126.224 12.8142C127.668 12.6057 128.003 12.5793 129.443 12.4185C130.304 12.3507 130.531 12.4753 130.557 13.2326C130.574 14.6076 130.299 16.0529 130.269 17.4316C130.234 18.3361 129.951 18.3109 129.033 18.478L122.282 19.0568C121.559 19.1611 121.355 19.3196 121.237 20.0882C120.876 21.9675 120.497 24.0381 120.518 25.8873C120.51 26.5049 120.597 26.593 121.267 26.5403C123.289 26.2387 124.22 26.4502 126.291 26.1448C126.822 26.0556 127.353 25.9664 127.879 25.925C128.692 25.8609 128.953 26.1251 128.975 26.9302L128.988 28.353C128.896 29.3568 128.796 29.4122 128.705 30.416C128.613 31.4198 127.882 32.1418 126.938 32.0737L120.957 32.5445C120 32.6198 119.873 32.9619 119.782 33.9658C119.612 35.83 119.35 38.1761 119.185 39.9925C118.98 42.2392 118.671 41.9788 120.829 41.7615C122.121 41.6598 125.318 41.5031 125.993 41.4026C126.954 41.2794 128.007 41.7186 127.863 43.2961C127.762 44.3955 127.68 44.7817 127.693 45.6824C127.562 47.1165 127.179 47.6686 126.204 47.9352C125.134 48.2092 124.665 48.1513 123.607 48.2819C121.015 48.5809 118.448 48.5931 115.855 48.892C114.85 48.9711 113.898 48.9987 112.915 48.8387C112.445 48.7808 112.314 48.6487 112.362 48.1229C112.406 46.6007 112.45 45.0786 112.542 43.5527C112.607 42.3137 112.768 41.067 112.877 39.872L112.925 39.8682ZM141.278 32.8435C141.331 31.7478 141.383 31.6962 140.996 30.73C140.283 28.6505 136.2 17.6767 134.696 14.3781C134.617 14.1944 134.496 13.9667 134.469 13.7314C134.383 13.1213 134.496 12.4005 135.261 12.3403C136.41 12.2499 137.276 12.1343 138.472 12.0401C139.381 11.9686 140.49 11.7864 141.091 12.4985C141.217 12.6784 141.243 12.9136 141.317 13.1451C141.673 14.9679 144.303 23.1136 144.751 23.9326C144.96 24.2484 145.151 24.2334 145.326 23.8875C147.345 19.9793 149.359 16.119 151.331 12.2146C151.792 11.324 152.349 10.948 153.21 10.8802C154.598 10.771 156.917 10.3512 157.443 10.8318C157.752 11.0923 157.508 11.681 157.382 12.0231C156.451 14.4219 148.792 29.1199 148.296 29.8708C147.847 30.6179 147.686 31.3425 147.617 32.1073C147.011 36.6636 146.571 41.4915 146.161 45.9849C146.131 46.3195 146.065 47.0365 145.252 47.1005L140.849 47.447C140.467 47.4771 140.005 47.3236 140.053 46.7978L141.278 32.8435Z" fill="#588B8B"/>
<path d="M181.62 44.2383C181.193 44.2244 180.558 44.4168 180.206 44.1123C179.762 43.7675 179.723 42.6316 179.593 41.9774C178.124 34.6421 176.855 27.196 175.73 19.7386C175.53 18.2831 175.226 16.4087 175.03 14.9054L174.687 12.9392C174.643 12.3731 174.309 10.3113 174.344 9.92885C174.339 9.4546 174.692 9.23703 175.175 9.15156C176.467 9.04988 177.715 8.90416 179.055 8.79871C179.725 8.74599 180.465 8.45049 180.682 9.19272C181.043 10.4457 182.633 23.7514 183.732 30.4515C183.758 30.6867 183.884 30.8666 183.958 31.0981C183.958 31.0981 184.145 31.1308 184.149 31.083L184.506 30.2956C186.822 23.659 188.763 15.9128 191.214 9.36049C191.723 7.94412 192.214 7.76305 193.459 7.66513C194.559 7.57852 195.655 7.5397 196.76 7.40528C197.335 7.36009 197.757 7.4218 197.835 8.12752C197.9 8.4546 197.769 8.84455 197.643 9.18669C195.093 16.8384 187.95 37.3332 187.206 39.7647C186.884 40.6917 186.605 41.6628 186.235 42.5937C186.114 42.888 185.844 43.7635 185.5 43.8855C184.965 44.0225 182.337 44.1818 181.62 44.2383ZM207.191 29.934C206.982 32.2285 206.328 40.9649 206.25 41.3033C205.954 41.9435 205.462 42.1246 204.883 42.2176C203.3 42.3897 201.817 42.5064 200.229 42.7263C199.846 42.7564 199.724 42.5287 199.698 42.2935C199.711 41.628 199.724 40.9626 199.833 40.2896C200.103 38.37 200.705 29.6851 200.832 27.7768C200.958 25.8685 202.309 12.6162 202.736 7.93159C202.819 7.02336 203.224 6.75423 204.129 6.73047C205.516 6.62126 206.138 6.5723 207.522 6.51088C208.474 6.48336 209.201 6.33127 209.035 8.14774C208.883 9.8208 208.813 11.6297 208.66 13.3028C208.12 18.7081 207.545 24.4959 207.191 29.934ZM223.544 5.06006C224.841 4.91057 226.015 5.05543 227.229 5.29212C228.251 5.54388 229.282 5.70004 228.925 7.00951C228.581 8.17558 227.92 9.17681 227.476 10.3982C227.284 10.9353 227.141 11.4687 226.475 11.4736C226.092 11.5037 225.823 11.3351 225.548 11.2143C225.096 10.9652 224.687 10.7601 224.174 10.6581C222.451 10.2716 220.059 10.982 219.441 13.0713C218.836 15.0173 219.17 17.0791 220.484 18.3046C222.632 20.2711 225.012 21.7924 226.795 24.1199C228.452 26.2675 229.46 28.7509 228.99 31.8253C228.955 32.2077 228.877 32.5461 228.794 32.9322C228.507 33.9989 228.08 35.0291 227.515 36.0228C224.651 40.8517 218.926 42.1565 214.337 41.4261C213.306 41.27 210.522 41.0619 210.705 39.5763C210.871 38.2819 211.402 37.1486 211.845 35.9272C211.967 35.6328 212.094 35.2907 212.311 34.9888C212.698 34.3888 213.26 34.487 213.708 34.784C214.469 35.2936 215.265 35.9428 216.191 36.2021C218.001 36.6767 220.85 36.1677 222.221 34.1614C223.383 32.3615 223.144 29.248 221.883 27.971C221.013 27.0903 219.978 26.4599 219.103 25.6269C218.133 24.8016 217.268 23.873 216.402 22.9445C215.454 21.8801 214.319 20.783 213.728 19.4533C213.175 18.2153 213.167 16.7448 213.393 15.3032C213.707 13.4276 214.308 11.5295 215.504 9.86917C216.857 8.05416 218.75 6.57637 220.773 5.75274C221.708 5.39437 222.631 5.17941 223.544 5.06006ZM240.697 27.297C240.488 29.5915 239.834 38.3279 239.755 38.6663C239.459 39.3066 238.968 39.4876 238.389 39.5806C236.806 39.7527 235.322 39.8695 233.735 40.0893C233.352 40.1195 233.23 39.8918 233.204 39.6565C233.217 38.9911 233.23 38.3256 233.339 37.6526C233.609 35.733 234.211 27.0482 234.338 25.1399C234.464 23.2316 235.815 9.9792 236.242 5.29463C236.325 4.3864 236.73 4.11726 237.634 4.09351C239.022 3.9843 239.644 3.93534 241.027 3.87392C241.98 3.8464 242.707 3.69431 242.541 5.51077C242.388 7.18383 242.319 8.99277 242.166 10.6658C241.626 16.0712 241.05 21.859 240.697 27.297ZM250.55 33.593C250.846 29.2984 252.546 13.266 252.859 9.82423C252.873 9.68083 252.838 9.54119 252.851 9.39779C252.803 8.8795 252.481 8.76246 252.003 8.80012C251.241 8.81257 248.514 9.02723 247.844 9.07996C246.695 9.17034 246.865 7.82813 246.987 6.48968C247.179 4.38641 247.218 3.43414 248.415 3.33999C249.994 3.21571 251.282 3.16183 252.861 3.03755C256.071 2.73742 263.871 2.12356 264.684 2.05954C265.833 1.96915 265.284 3.81575 265.189 4.86738C265.08 6.06243 265.162 7.76446 264.157 7.84354L259.946 8.17495C258.989 8.25028 258.728 8.50811 258.663 9.22514L256.078 36.0054C256.052 36.8142 256.104 38.3288 255.195 38.4004L250.888 38.7393C250.218 38.7921 250.179 38.7002 250.24 38.031C250.327 36.5529 250.462 35.0711 250.55 33.593ZM278.639 0.723964C279.936 0.57448 281.11 0.719337 282.324 0.956033C283.346 1.20779 284.377 1.36395 284.02 2.67342C283.676 3.83949 283.015 4.84072 282.571 6.06212C282.379 6.59924 282.236 7.13259 281.57 7.13752C281.187 7.16764 280.918 6.99903 280.644 6.87822C280.191 6.62907 279.782 6.42396 279.269 6.32198C277.547 5.93551 275.154 6.64586 274.536 8.73523C273.931 10.6812 274.265 12.743 275.579 13.9685C277.728 15.935 280.107 17.4563 281.89 19.7838C283.547 21.9314 284.556 24.4148 284.085 27.4892C284.05 27.8716 283.972 28.21 283.889 28.5961C283.602 29.6628 283.176 30.693 282.61 31.6867C279.747 36.5156 274.022 37.8204 269.432 37.09C268.401 36.9339 265.617 36.7259 265.8 35.2402C265.966 33.9458 266.497 32.8125 266.941 31.5911C267.063 31.2967 267.189 30.9546 267.406 30.6527C267.794 30.0527 268.355 30.151 268.803 30.4479C269.564 30.9575 270.36 31.6067 271.286 31.866C273.096 32.3406 275.945 31.8316 277.316 29.8254C278.478 28.0254 278.239 24.9119 276.978 23.6349C276.108 22.7542 275.073 22.1238 274.199 21.2909C273.229 20.4655 272.363 19.537 271.498 18.6084C270.55 17.5441 269.414 16.4469 268.823 15.1172C268.271 13.8792 268.262 12.4087 268.489 10.9671C268.802 9.09155 269.403 7.19339 270.6 5.53308C271.953 3.71807 273.845 2.24028 275.868 1.41664C276.804 1.05828 277.726 0.843323 278.639 0.723964Z" fill="#F28F3B"/>
<path d="M7.7375 134.339C5.1649 134.624 3.26178 134.774 1.19318 134.937C0.862202 134.963 0.440944 135.078 0.207785 134.932C-0.281143 134.889 5.26579 117.301 6.06357 114.858C8.33649 107.95 10.2633 101.233 12.3783 94.2553C14.0342 88.7088 18.2113 75.3319 18.4823 74.1616C18.7609 72.9088 18.7083 72.5846 19.8667 72.4935C22.7477 72.4309 25.7415 72.0311 28.5548 71.8097C29.8787 71.7055 29.3747 71.8272 29.8183 73.2695C30.0059 75.7166 35.3612 119.692 35.6018 120.658C36.1354 122.913 36.0824 125.297 36.616 127.553C36.804 128.195 37.7736 131.976 35.8705 132.125C34.4563 132.319 29.6572 132.696 28.3333 132.801C27.3403 132.879 27.25 132.968 27.0095 132.002C26.6412 130.636 26.3857 128.933 26.0174 127.567L25.6115 125.711C25.4311 124.987 24.9724 124.613 24.0622 124.684C19.9325 124.927 17.894 124.759 13.7116 125.581C12.8691 125.811 12.6133 125.913 12.4401 126.912C12.1616 128.165 11.1225 134.155 9.46759 134.285C8.7229 134.344 7.9782 134.403 7.7375 134.339ZM20.2879 114.723C21.0326 114.665 21.7697 114.689 22.5144 114.63C24.0038 114.513 24.3348 114.487 23.8614 111.57C23.4257 108.239 23.1705 105.633 22.7122 102.551C22.4716 101.585 22.3668 99.1316 22.1262 98.1658C22.051 98.0896 21.9006 97.9373 21.7351 97.9504C21.6524 97.9569 21.4718 98.1352 21.374 98.307C20.659 100.743 17.528 110.755 16.9484 112.606C16.1507 115.049 16.2334 115.042 18.5502 114.86L20.2879 114.723ZM55.0905 125.114C54.7966 128.338 55.1872 131.262 53.3668 131.405C50.9673 131.594 49.5531 131.787 47.2362 131.969C46.657 132.015 46.0026 131.984 45.4234 132.03C44.4305 132.108 44.2876 131.873 44.3856 130.799C44.7172 127.162 47.189 101.856 48.0633 92.2675C48.5533 85.9921 48.9682 79.6405 49.714 73.2629L49.8045 72.271C50.0153 70.8593 50.9106 70.0503 52.2345 69.9461C55.0478 69.7247 56.62 69.6009 58.8465 69.5078C61.404 69.3885 63.909 68.9452 66.459 68.9086C70.6563 68.8245 74.041 70.4456 76.4776 73.4543C79.6361 77.5551 80.3346 83.4088 79.0097 88.9292C77.7601 94.5259 73.8705 98.4428 69.5746 102.31C69.3865 102.571 68.0926 103.247 68.228 103.565C68.3256 104.295 72.416 113.493 73.0099 115.087C73.8897 117.152 77.8072 125.542 78.243 127.97C78.4083 128.86 78.0998 129.54 77.0241 129.625L67.9298 130.259C67.4333 130.298 66.8391 130.509 66.5533 130.039C66.3277 129.81 65.6587 127.237 65.3279 126.36C62.9219 120.313 60.6137 114.094 57.8918 107.907C57.8317 107.665 57.6813 107.513 57.3503 107.539C57.0193 107.565 56.8086 108.074 56.7033 108.329C56.5225 109.41 55.2865 122.965 55.0905 125.114ZM58.0299 92.8782C58.0299 92.8782 57.879 95.434 57.7584 96.7566C57.6603 98.7338 60.0148 98.1382 61.2861 97.7099C63.4075 96.9685 65.3258 95.7507 66.5673 93.8476C69.1557 89.7868 70.1197 82.8176 66.2388 80.3329C64.9226 79.4517 61.8011 78.5485 60.1234 79.8294C58.8821 80.8298 59.0697 83.2769 58.8739 84.5233L58.0299 92.8782ZM99.0003 106.641C98.6385 110.609 97.5075 125.715 97.372 126.3C96.8603 127.407 96.0102 127.721 95.0098 127.881C92.2717 128.179 89.7066 128.381 86.961 128.761C86.299 128.813 86.0885 128.419 86.0434 128.013C86.0662 126.862 86.0889 125.711 86.2772 124.547C86.7442 121.228 87.7849 106.211 88.0037 102.911C88.2224 99.6111 90.5583 76.6955 91.297 68.5951C91.4402 67.0246 92.1398 66.5593 93.7044 66.5182C96.104 66.3293 97.1797 66.2447 99.5717 66.1385C101.219 66.0909 102.475 65.8279 102.189 68.9689C101.925 71.8619 101.804 74.9898 101.54 77.8828C100.606 87.2296 99.6113 97.2376 99.0003 106.641ZM126.972 64.0641C130.853 63.8407 134.66 63.5411 138.549 63.2351C139.21 63.183 139.88 63.0482 140.534 63.0788C143.664 62.9966 136.703 77.1671 135.898 78.7896C133.761 83.3072 121.961 110.907 120.795 114.691C120.471 115.537 121.14 116.305 121.968 116.24C125.774 115.941 128.745 115.789 132.138 115.522C136.11 115.209 138.276 113.972 137.952 117.526C137.786 119.345 137.372 121.183 137.214 122.919C137.116 123.993 136.627 124.852 135.551 124.937C133.317 125.113 110.322 126.84 108.095 126.934C106.854 127.031 105.131 127.003 105.786 125.228C106.027 124.388 125.819 77.6134 126.135 76.8499C126.248 76.5128 126.36 76.1756 126.556 75.832C126.767 75.323 126.985 74.7314 127.038 74.1528C127.06 73.9048 126.76 73.6002 126.602 73.5306C126.03 73.4935 119.907 73.9754 117.59 74.1578C112.874 74.529 111.963 74.6006 112.069 73.4434C112.318 70.7157 112.212 70.0675 112.506 66.8439C112.604 65.7693 113.319 65.1386 114.395 65.054L126.972 64.0641ZM190.961 74.1278C188.624 65.5309 180.756 59.9132 171.587 60.4708C162.387 61.3589 153.375 68.3051 149.507 77.3904C147.302 82.6519 146.383 88.2224 145.885 93.6778C145.471 98.2239 145.816 102.546 146.658 106.829C147.59 111.926 149.725 116.436 153.832 119.149C157.006 121.279 160.338 122.576 164.355 122.67C164.934 122.624 165.423 122.668 165.919 122.629C166.498 122.583 167.002 122.462 167.582 122.416C171.674 121.684 175.292 119.84 178.82 117.182C183.568 113.772 186.479 108.865 188.444 103.541C190.002 99.0687 191.228 94.6228 191.643 90.0766C192.14 84.6212 192.232 79.1158 190.961 74.1278ZM180.915 96.9116C179.673 101.523 177.461 107.77 172.947 110.423C171.036 111.558 168.907 112.382 166.831 112.627C164.77 112.708 162.844 112.203 161.115 111.354C157.023 109.378 155.926 103.392 155.513 98.9108C155.145 93.9338 155.943 88.783 157.396 83.6628C158.721 79.045 161.114 74.4253 165.251 71.3915C165.959 70.8435 166.658 70.3781 167.508 70.065C168.629 69.4844 169.72 69.2344 170.796 69.1498C171.871 69.0651 173.015 69.1393 174.045 69.5505C174.767 69.7399 175.474 70.0946 176.091 70.5384C179.648 72.9665 181.227 77.2737 181.806 81.7417C182.339 86.7057 182.202 91.8044 180.915 96.9116ZM237.876 57.2232C237.726 56.1682 237.884 55.3351 236.726 55.4263C234.401 55.6913 231.693 55.6582 229.361 56.0059C228.94 56.1211 227.857 56.2884 227.578 56.6386C227.112 57.2497 227.292 57.9741 227.217 58.8007C227.164 59.3793 225.181 88.3398 225.068 89.5797C225.022 90.0756 224.954 91.7223 224.593 92.0789L224.511 92.0855C224.037 91.8766 223.338 89.6338 223.142 89.0747C221.916 86.299 214.579 63.1599 212.82 58.1284C212.557 57.4105 212.233 57.3539 211.654 57.3995C209.834 57.5427 208.013 57.686 206.185 57.9119C203.538 58.1203 202.748 58.6749 202.506 61.3199C202.228 64.3782 198.64 105.528 197.841 112.485L197.246 119.015C197.253 119.835 197.644 120.05 198.472 119.985C199.562 119.735 200.879 119.713 201.954 119.629L206.092 119.303C207.747 119.173 207.859 118.836 208.04 116.852C208.402 112.884 210.182 87.9611 210.528 85.0616C210.558 84.7309 210.446 84.1654 210.874 83.9675C211.221 83.7761 211.559 84.5701 211.694 84.8877C213.093 88.4705 222.648 117.015 223.257 117.542C223.927 118.31 227.44 117.623 229.922 117.428C231.577 117.297 232.479 117.308 232.706 114.829C232.834 113.424 238.019 58.3609 237.876 57.2232ZM247.809 115.445C245.236 115.73 243.333 115.88 241.264 116.043C240.933 116.069 240.512 116.184 240.279 116.038C239.79 115.995 245.337 98.4066 246.135 95.9639C248.408 89.0558 250.334 82.3391 252.449 75.3613C254.105 69.8148 258.282 56.4379 258.553 55.2676C258.832 54.0147 258.779 53.6906 259.938 53.5995C262.819 53.5369 265.813 53.1371 268.626 52.9157C269.95 52.8115 269.446 52.9332 269.889 54.3755C270.077 56.8226 275.432 100.798 275.673 101.764C276.207 104.019 276.153 106.403 276.687 108.659C276.875 109.301 277.845 113.082 275.942 113.231C274.527 113.425 269.728 113.802 268.404 113.907C267.411 113.985 267.321 114.074 267.081 113.108C266.712 111.742 266.457 110.039 266.089 108.673L265.683 106.817C265.502 106.093 265.043 105.719 264.133 105.79C260.004 106.033 257.965 105.865 253.783 106.687C252.94 106.917 252.684 107.019 252.511 108.018C252.233 109.271 251.194 115.261 249.539 115.391C248.794 115.45 248.049 115.509 247.809 115.445ZM260.359 95.8292C261.104 95.7706 261.841 95.7947 262.586 95.7361C264.075 95.6189 264.406 95.5928 263.933 92.6758C263.497 89.3454 263.242 86.7395 262.783 83.6571C262.543 82.6913 262.438 80.2376 262.197 79.2718C262.122 79.1956 261.972 79.0433 261.806 79.0564C261.724 79.0629 261.543 79.2412 261.445 79.413C260.73 81.8492 257.599 91.8612 257.02 93.7122C256.222 96.1548 256.305 96.1483 258.621 95.966L260.359 95.8292Z" fill="#C8553D"/>
</svg>
